<?xml version="1.0" encoding="utf-8"?>
<!-- Generator: Adobe Illustrator 17.1.0, SVG Export Plug-In . SVG Version: 6.00 Build 0)  -->
<!DOCTYPE svg PUBLIC "-//W3C//DTD SVG 1.1//EN" "http://www.w3.org/Graphics/SVG/1.1/DTD/svg11.dtd">
<svg version="1.1" xmlns="http://www.w3.org/2000/svg" xmlns:xlink="http://www.w3.org/1999/xlink" x="0px" y="0px" width="72px"
	 height="72px" viewBox="0 0 72 72" enable-background="new 0 0 72 72" xml:space="preserve">
<g id="Layer_1" display="none">
	<g id="jlj7Q8.tif" display="inline">
		<g>
			<path fill="#829216" d="M36.481,51.977C31.791,51.978,27.1,51.943,22.411,52c-1.34,0.016-1.879-0.399-1.885-1.799
				c-0.017-4.022-0.04-3.97,3.576-5.565c2.443-1.077,4.874-2.215,7.191-3.536c1.816-1.036,1.828-2.139,0.682-3.922
				c-0.973-1.515-1.802-3.128-2.604-4.742c-0.213-0.43-0.16-1.031-0.113-1.544c0.145-1.595,0.448-3.182,0.504-4.779
				c0.121-3.476,1.691-5.497,5.113-5.997c1.385-0.202,2.876-0.135,4.25,0.147c2.461,0.504,3.884,2.346,4.134,4.876
				c0.2,2.025,0.443,4.047,0.628,6.073c0.038,0.416,0.018,0.905-0.167,1.261c-0.828,1.6-1.641,3.22-2.62,4.728
				c-1.134,1.746-1.11,2.883,0.73,3.911c2.495,1.394,5.099,2.607,7.718,3.76c2.982,1.312,3.011,1.246,3.043,4.476
				c0.003,0.287-0.002,0.575,0.015,0.861c0.075,1.256-0.432,1.803-1.766,1.788C46.054,51.943,41.267,51.977,36.481,51.977z"/>
		</g>
	</g>
</g>
<g id="Layer_2" display="none">
	<path display="inline" fill="#829216" d="M52.61,50.427c-0.106-4.471-0.03-8.946-0.033-13.419
		c-0.002-3.216-1.232-4.455-4.432-4.471c-0.434-0.002-0.868,0-1.481,0c0-2.588-0.116-5.085,0.027-7.566
		c0.223-3.895-1.336-6.519-5.052-7.808c-3.351,0-6.701,0-10.052,0c-3.721,1.283-5.275,3.911-5.051,7.803
		c0.14,2.444,0.026,4.903,0.026,7.572c-0.748,0-1.413-0.01-2.077,0.002c-2.403,0.042-3.821,1.457-3.831,3.884
		c-0.019,4.669,0.06,9.34-0.04,14.006c-0.047,2.176,0.685,3.704,2.694,4.576c8.87,0,17.739,0,26.609,0
		C51.92,54.127,52.662,52.609,52.61,50.427z M33.823,41.432c0-1.541,1.249-2.79,2.79-2.79c1.541,0,2.79,1.249,2.79,2.79
		c0,1.149-0.694,2.134-1.686,2.562v4.367h-2.217V43.99C34.513,43.56,33.823,42.577,33.823,41.432z M43.095,32.465
		c-4.424,0-8.633,0-12.965,0c0-3.151-0.063-6.233,0.028-9.311c0.041-1.403,1.216-2.395,2.69-2.426
		c2.504-0.052,5.011-0.049,7.515-0.001c1.479,0.029,2.66,1.007,2.702,2.41C43.16,26.217,43.095,29.301,43.095,32.465z"/>
</g>
<g id="Layer_3" display="none">
	<g id="_x34_BZHGu.tif" display="inline">
		<g>
			<path fill="#829216" d="M20.568,27.622c2.458,2.032,4.92,4.061,7.374,6.098c0.795,0.66,1.571,1.343,2.399,2.054
				c-3.287,3.313-6.53,6.58-9.773,9.848C20.568,39.622,20.568,33.622,20.568,27.622z"/>
			<path fill="#829216" d="M52.568,45.622c-3.252-3.259-6.503-6.517-9.852-9.874c3.337-2.753,6.595-5.44,9.852-8.126
				C52.568,33.622,52.568,39.622,52.568,45.622z"/>
			<path fill="#829216" d="M21.189,25.716c0.674-0.131,1.218-0.328,1.762-0.33c9.074-0.02,18.149-0.02,27.223-0.002
				c0.545,0.001,1.09,0.197,1.882,0.35c-0.407,0.44-0.594,0.689-0.826,0.886c-4.626,3.94-9.259,7.872-13.885,11.811
				c-0.429,0.365-0.761,0.688-1.365,0.169c-4.832-4.147-9.69-8.263-14.537-12.391C21.386,26.161,21.367,26.068,21.189,25.716z"/>
			<path fill="#829216" d="M51.738,47.363c-10.18,0.016-20.162,0.023-30.256-0.009c3.568-3.571,6.901-6.905,10.328-10.334
				c1.139,0.962,2.521,2.084,3.846,3.269c0.658,0.589,1.169,0.588,1.824,0.001c1.3-1.164,2.652-2.269,3.892-3.32
				C44.736,40.342,48.068,43.683,51.738,47.363z"/>
		</g>
	</g>
</g>
<g id="Layer_4" display="none">
	<g display="inline">
		<g>
			<path id="LIST_2_" fill-rule="evenodd" clip-rule="evenodd" fill="#444F3B" d="M21.772,47.392l25.633-25.633
				c0.732-0.732,2.075-0.576,3,0.349c0.925,0.925,1.081,2.268,0.349,3.001L25.122,50.741c-0.732,0.732-2.076,0.576-3.001-0.349
				C21.196,49.467,21.04,48.124,21.772,47.392z"/>
			<path id="LIST_3_" fill-rule="evenodd" clip-rule="evenodd" fill="#444F3B" d="M50.405,50.392
				c-0.925,0.925-2.268,1.081-3.001,0.349L21.772,25.108c-0.732-0.732-0.576-2.076,0.349-3.001c0.925-0.925,2.268-1.081,3-0.349
				l25.633,25.633C51.486,48.124,51.33,49.467,50.405,50.392z"/>
		</g>
	</g>
</g>
<g id="Layer_5" display="none">
	<g display="inline">
		<path id="LIST_8_" fill-rule="evenodd" clip-rule="evenodd" fill="#444F3B" d="M54.125,38.667h-36.25
			c-1.036,0-1.875-1.06-1.875-2.368c0-1.308,0.839-2.368,1.875-2.368h36.25c1.035,0,1.875,1.06,1.875,2.368
			C56,37.606,55.16,38.667,54.125,38.667z M54.125,26.035h-36.25c-1.036,0-1.875-1.06-1.875-2.368c0-1.308,0.839-2.369,1.875-2.369
			h36.25c1.035,0,1.875,1.061,1.875,2.369C56,24.975,55.16,26.035,54.125,26.035z M17.875,46.561h36.25
			c1.035,0,1.875,1.06,1.875,2.368c0,1.308-0.84,2.369-1.875,2.369h-36.25c-1.036,0-1.875-1.06-1.875-2.369
			C16,47.622,16.839,46.561,17.875,46.561z"/>
	</g>
</g>
<g id="Layer_6" display="none">
	<g id="VmXrf8.tif_1_" display="inline">
		<g>
			<g>
				<path fill="#BBA248" d="M34.887,6.5c1.076,0,2.151,0,3.227,0c1.004,0.125,2.014,0.215,3.011,0.381
					c6.279,1.042,11.712,3.776,16.209,8.286c4.612,4.626,7.402,10.189,8.337,16.666c0.123,0.85,0.22,1.703,0.33,2.555
					c0,1.076,0,2.151,0,3.227c-0.037,0.186-0.094,0.371-0.108,0.559c-0.338,4.733-1.708,9.151-4.232,13.162
					c-4.881,7.757-11.86,12.399-20.937,13.829c-0.866,0.136-1.74,0.226-2.61,0.337c-1.076,0-2.151,0-3.227,0
					c-0.166-0.036-0.33-0.094-0.497-0.106c-4.997-0.348-9.629-1.844-13.806-4.598C13.157,55.898,8.712,49.04,7.335,40.227
					C7.199,39.36,7.11,38.485,7,37.613c0-1.076,0-2.151,0-3.227c0.036-0.186,0.093-0.371,0.106-0.558
					c0.214-3.163,0.884-6.231,2.172-9.124C13.75,14.659,21.406,8.667,32.273,6.835C33.138,6.689,34.015,6.61,34.887,6.5z
					 M55.773,53.13c8.837-9.66,9.232-25.981-1.849-36.178c-10.643-9.794-27.545-9.023-37.192,2.446
					C7.56,30.304,9.655,45.153,17.259,53.113c3.561-2.464,7.834-3.054,11.676-4.494c0.087,1.317-0.044,2.652,0.295,3.854
					c1,3.543,3.085,6.441,5.833,8.866c0.823,0.726,2.068,0.702,2.909-0.023c2.294-1.978,3.962-4.414,5.238-7.141
					c0.564-1.205,0.841-2.461,0.802-3.791c-0.017-0.585-0.003-1.172-0.003-1.79C47.931,50.066,52.213,50.663,55.773,53.13z"/>
				<path fill="#BBA248" d="M47.795,30.798c0.934,0.116,1.336,0.443,1.485,1.317c0.324,1.908-0.272,3.55-1.528,4.985
					c-0.198,0.226-0.393,0.472-0.521,0.741c-1.018,2.139-2.162,4.197-3.786,5.948c-1.899,2.048-4.186,3.281-7.039,3.253
					c-2.831-0.028-5.076-1.304-6.939-3.349c-1.555-1.706-2.667-3.693-3.659-5.759c-0.153-0.319-0.378-0.613-0.61-0.884
					c-1.195-1.399-1.781-2.991-1.495-4.834c0.15-0.968,0.508-1.272,1.452-1.424c-0.11-1.292-0.25-2.584-0.323-3.879
					c-0.081-1.444,0.048-2.874,0.459-4.27c0.697-2.364,2.212-4.095,4.35-5.198c4.662-2.406,9.376-2.395,13.977,0.152
					c2.87,1.589,4.377,4.166,4.489,7.434c0.061,1.792-0.17,3.593-0.271,5.391C47.829,30.534,47.812,30.645,47.795,30.798z
					 M46.287,28.326c-1.253-0.105-2.323-0.177-3.389-0.287c-4.192-0.433-8.004-1.744-11.065-4.798
					c-0.141-0.141-0.449-0.22-0.65-0.181c-2.199,0.426-3.414,1.978-4.335,3.852c-0.032,0.065-0.04,0.149-0.039,0.224
					c0.016,0.728-0.027,1.465,0.068,2.183c0.184,1.383,0.447,2.755,0.678,4.137c-0.229-0.437-0.407-0.913-0.703-1.297
					c-0.21-0.273-0.711-0.66-0.851-0.582c-0.338,0.189-0.723,0.599-0.765,0.958c-0.155,1.313,0.259,2.488,1.142,3.497
					c0.309,0.353,0.584,0.748,0.811,1.159c0.853,1.541,1.619,3.133,2.535,4.634c0.82,1.344,1.948,2.438,3.44,3.043
					c2.925,1.184,7.364,1.114,9.937-2.814c1.035-1.58,1.835-3.313,2.747-4.974c0.155-0.283,0.282-0.615,0.514-0.817
					c0.814-0.708,1.223-1.621,1.382-2.645c0.071-0.459,0.072-0.977-0.069-1.412c-0.274-0.84-0.935-0.919-1.436-0.199
					c-0.313,0.45-0.542,0.957-0.776,1.38C45.728,31.758,46.004,30.065,46.287,28.326z"/>
			</g>
		</g>
	</g>
</g>
<g id="Layer_7" display="none">
	<g id="tb5fvI.tif_1_" display="inline">
		<g>
			<path fill="#EFE8D8" d="M56.497,33.849c0,1.667,0,3.333,0,5c-0.836,1.227-2.055,1.468-3.416,1.299
				c-0.911-0.113-1.432,0.181-1.662,1.149c-0.189,0.797-0.702,1.514-0.913,2.309c-0.118,0.444-0.101,1.194,0.177,1.431
				c2.801,2.397,1.987,3.692-0.252,5.675c-0.311,0.275-0.581,0.597-0.888,0.877c-1.057,0.962-2.298,1.088-3.161-0.009
				c-1.255-1.595-2.498-1.703-4.056-0.612c-0.247,0.173-0.571,0.278-0.873,0.322c-0.984,0.144-1.273,0.727-1.157,1.643
				c0.173,1.362-0.077,2.578-1.298,3.417c-1.667,0-3.333,0-5,0c-1.234-0.834-1.464-2.057-1.297-3.415
				c0.113-0.918-0.196-1.424-1.154-1.655c-0.796-0.192-1.514-0.704-2.308-0.916c-0.447-0.119-1.132-0.098-1.45,0.169
				c-2.925,2.458-2.912,2.477-5.653-0.259c-0.294-0.294-0.605-0.573-0.883-0.882c-0.955-1.058-1.085-2.302,0.016-3.161
				c1.609-1.255,1.69-2.497,0.603-4.05c-0.173-0.246-0.274-0.572-0.317-0.874c-0.142-0.984-0.722-1.272-1.64-1.159
				c-1.358,0.167-2.581-0.065-3.416-1.297c0-1.667,0-3.333,0-5c0.829-1.241,2.054-1.467,3.411-1.3
				c0.915,0.112,1.429-0.184,1.658-1.147c0.19-0.797,0.696-1.516,0.905-2.311c0.119-0.45,0.106-1.136-0.161-1.455
				c-2.446-2.934-2.466-2.923,0.263-5.651c0.294-0.294,0.578-0.599,0.885-0.879c1.057-0.966,2.276-1.074,3.158,0.016
				c1.196,1.478,2.372,1.739,3.908,0.654c0.287-0.202,0.666-0.32,1.018-0.373c0.988-0.148,1.261-0.732,1.149-1.644
				c-0.165-1.358,0.062-2.582,1.305-3.409c1.667,0,3.333,0,5,0c1.232,0.834,1.464,2.057,1.297,3.416
				c-0.113,0.918,0.195,1.427,1.155,1.657c0.797,0.191,1.515,0.702,2.31,0.911c0.448,0.118,1.208,0.104,1.439-0.174
				c2.294-2.759,3.642-2.042,5.665,0.264c0.274,0.312,0.596,0.581,0.877,0.887c0.974,1.059,1.073,2.303-0.021,3.157
				c-1.61,1.256-1.683,2.501-0.602,4.052c0.173,0.248,0.282,0.57,0.325,0.872c0.141,0.99,0.73,1.265,1.643,1.155
				C54.444,32.381,55.666,32.613,56.497,33.849z M45.206,24.784c-2.184-0.835-3.983-1.481-5.738-2.229
				c-0.352-0.15-0.727-0.673-0.762-1.055c-0.101-1.114-0.036-2.242-0.036-3.399c-1.562,0-2.884,0-4.347,0
				c0,1.194,0.081,2.286-0.041,3.355c-0.047,0.409-0.479,0.93-0.871,1.117c-1.445,0.688-2.928,1.313-4.439,1.837
				c-0.444,0.154-1.184,0.073-1.524-0.214c-0.82-0.69-1.483-1.566-2.057-2.199c-1.237,1.1-2.261,2.012-3.36,2.99
				c0.817,0.794,1.492,1.52,2.242,2.157c0.67,0.569,0.718,1.023,0.281,1.839c-0.728,1.361-1.167,2.873-1.829,4.274
				c-0.186,0.392-0.705,0.831-1.111,0.875c-1.105,0.121-2.232,0.041-3.351,0.041c0,1.583,0,2.905,0,4.347
				c1.21,0,2.3-0.051,3.38,0.029c0.367,0.027,0.906,0.304,1.032,0.606c0.767,1.849,1.438,3.737,2.307,6.056
				c-0.833,0.671-1.916,1.542-2.962,2.384c1.139,1.189,2.067,2.157,3.268,3.411c0.915-1.168,1.779-2.271,2.623-3.348
				c0.978,0.544,1.623,0.988,2.332,1.278c1.288,0.526,3.082,0.602,3.792,1.532c0.697,0.914,0.309,2.656,0.401,4.1
				c1.427,0,2.787,0,4.234,0c0-1.231-0.053-2.324,0.03-3.407c0.028-0.358,0.332-0.875,0.641-1.002
				c1.811-0.747,3.66-1.399,6.001-2.272c0.653,0.766,1.581,1.855,2.345,2.751c1.192-1.05,2.197-1.936,3.521-3.103
				c-1.21-0.942-2.318-1.805-3.139-2.444c0.835-2.232,1.481-4.084,2.242-5.886c0.14-0.331,0.734-0.622,1.142-0.657
				c1.067-0.091,2.148-0.031,3.302-0.031c0-1.516,0-2.838,0-4.342c-1.177,0-2.26,0.062-3.33-0.032
				c-0.402-0.035-0.978-0.347-1.121-0.682c-0.763-1.8-1.414-3.647-2.221-5.788c0.843-0.697,1.922-1.588,2.83-2.338
				c-1.145-1.302-2.055-2.338-3.155-3.589C46.793,22.894,45.924,23.928,45.206,24.784z"/>
			<path fill="#EFE8D8" d="M44.877,36.347c0.012,4.443-3.942,8.395-8.384,8.381c-4.476-0.014-8.38-3.917-8.386-8.384
				c-0.005-4.442,3.946-8.392,8.388-8.386C40.96,27.965,44.865,31.873,44.877,36.347z M43.161,36.377
				c0.014-3.863-2.818-6.707-6.673-6.702c-3.788,0.005-6.61,2.783-6.664,6.562c-0.056,3.861,2.747,6.738,6.6,6.775
				C40.281,43.049,43.147,40.227,43.161,36.377z"/>
		</g>
	</g>
</g>
<g id="Layer_8" display="none">
	<g id="tb5fvI.tif_2_" display="inline">
		<g>
			<path fill="#D8DC15" d="M56.497,33.849c0,1.667,0,3.333,0,5c-0.836,1.227-2.055,1.468-3.416,1.299
				c-0.911-0.113-1.432,0.181-1.662,1.149c-0.189,0.797-0.702,1.514-0.913,2.309c-0.118,0.444-0.101,1.194,0.177,1.431
				c2.801,2.397,1.987,3.692-0.252,5.675c-0.311,0.275-0.581,0.597-0.888,0.877c-1.057,0.962-2.298,1.088-3.161-0.009
				c-1.255-1.595-2.498-1.703-4.056-0.612c-0.247,0.173-0.571,0.278-0.873,0.322c-0.984,0.144-1.273,0.727-1.157,1.643
				c0.173,1.362-0.077,2.578-1.298,3.417c-1.667,0-3.333,0-5,0c-1.234-0.834-1.464-2.057-1.297-3.415
				c0.113-0.918-0.196-1.424-1.154-1.655c-0.796-0.192-1.514-0.704-2.308-0.916c-0.447-0.119-1.132-0.098-1.45,0.169
				c-2.925,2.458-2.912,2.477-5.653-0.259c-0.294-0.294-0.605-0.573-0.883-0.882c-0.955-1.058-1.085-2.302,0.016-3.161
				c1.609-1.255,1.69-2.497,0.603-4.05c-0.173-0.246-0.274-0.572-0.317-0.874c-0.142-0.984-0.722-1.272-1.64-1.159
				c-1.358,0.167-2.581-0.065-3.416-1.297c0-1.667,0-3.333,0-5c0.829-1.241,2.054-1.467,3.411-1.3
				c0.915,0.112,1.429-0.184,1.658-1.147c0.19-0.797,0.696-1.516,0.905-2.311c0.119-0.45,0.106-1.136-0.161-1.455
				c-2.446-2.934-2.466-2.923,0.263-5.651c0.294-0.294,0.578-0.599,0.885-0.879c1.057-0.966,2.276-1.074,3.158,0.016
				c1.196,1.478,2.372,1.739,3.908,0.654c0.287-0.202,0.666-0.32,1.018-0.373c0.988-0.148,1.261-0.732,1.149-1.644
				c-0.165-1.358,0.062-2.582,1.305-3.409c1.667,0,3.333,0,5,0c1.232,0.834,1.464,2.057,1.297,3.416
				c-0.113,0.918,0.195,1.427,1.155,1.657c0.797,0.191,1.515,0.702,2.31,0.911c0.448,0.118,1.208,0.104,1.439-0.174
				c2.294-2.759,3.642-2.042,5.665,0.264c0.274,0.312,0.596,0.581,0.877,0.887c0.974,1.059,1.073,2.303-0.021,3.157
				c-1.61,1.256-1.683,2.501-0.602,4.052c0.173,0.248,0.282,0.57,0.325,0.872c0.141,0.99,0.73,1.265,1.643,1.155
				C54.444,32.381,55.666,32.613,56.497,33.849z M45.206,24.784c-2.184-0.835-3.983-1.481-5.738-2.229
				c-0.352-0.15-0.727-0.673-0.762-1.055c-0.101-1.114-0.036-2.242-0.036-3.399c-1.562,0-2.884,0-4.347,0
				c0,1.194,0.081,2.286-0.041,3.355c-0.047,0.409-0.479,0.93-0.871,1.117c-1.445,0.688-2.928,1.313-4.439,1.837
				c-0.444,0.154-1.184,0.073-1.524-0.214c-0.82-0.69-1.483-1.566-2.057-2.199c-1.237,1.1-2.261,2.012-3.36,2.99
				c0.817,0.794,1.492,1.52,2.242,2.157c0.67,0.569,0.718,1.023,0.281,1.839c-0.728,1.361-1.167,2.873-1.829,4.274
				c-0.186,0.392-0.705,0.831-1.111,0.875c-1.105,0.121-2.232,0.041-3.351,0.041c0,1.583,0,2.905,0,4.347
				c1.21,0,2.3-0.051,3.38,0.029c0.367,0.027,0.906,0.304,1.032,0.606c0.767,1.849,1.438,3.737,2.307,6.056
				c-0.833,0.671-1.916,1.542-2.962,2.384c1.139,1.189,2.067,2.157,3.268,3.411c0.915-1.168,1.779-2.271,2.623-3.348
				c0.978,0.544,1.623,0.988,2.332,1.278c1.288,0.526,3.082,0.602,3.792,1.532c0.697,0.914,0.309,2.656,0.401,4.1
				c1.427,0,2.787,0,4.234,0c0-1.231-0.053-2.324,0.03-3.407c0.028-0.358,0.332-0.875,0.641-1.002
				c1.811-0.747,3.66-1.399,6.001-2.272c0.653,0.766,1.581,1.855,2.345,2.751c1.192-1.05,2.197-1.936,3.521-3.103
				c-1.21-0.942-2.318-1.805-3.139-2.444c0.835-2.232,1.481-4.084,2.242-5.886c0.14-0.331,0.734-0.622,1.142-0.657
				c1.067-0.091,2.148-0.031,3.302-0.031c0-1.516,0-2.838,0-4.342c-1.177,0-2.26,0.062-3.33-0.032
				c-0.402-0.035-0.978-0.347-1.121-0.682c-0.763-1.8-1.414-3.647-2.221-5.788c0.843-0.697,1.922-1.588,2.83-2.338
				c-1.145-1.302-2.055-2.338-3.155-3.589C46.793,22.894,45.924,23.928,45.206,24.784z"/>
			<path fill="#D8DC15" d="M44.877,36.347c0.012,4.443-3.942,8.395-8.384,8.381c-4.476-0.014-8.38-3.917-8.386-8.384
				c-0.005-4.442,3.946-8.392,8.388-8.386C40.96,27.965,44.865,31.873,44.877,36.347z M43.161,36.377
				c0.014-3.863-2.818-6.707-6.673-6.702c-3.788,0.005-6.61,2.783-6.664,6.562c-0.056,3.861,2.747,6.738,6.6,6.775
				C40.281,43.049,43.147,40.227,43.161,36.377z"/>
		</g>
	</g>
</g>
<g id="Layer_9" display="none">
	<g display="inline">
		<path id="LIST_9_" fill-rule="evenodd" clip-rule="evenodd" fill="#444F3B" d="M26.657,37.919
			c-0.925-0.925-1.081-2.268-0.349-3.001l18.562-18.562c0.732-0.732,2.076-0.576,3.001,0.349c0.925,0.925,1.081,2.268,0.349,3
			L29.657,38.268C28.925,39,27.582,38.844,26.657,37.919z"/>
		<path id="LIST_1_" fill-rule="evenodd" clip-rule="evenodd" fill="#444F3B" d="M44.869,56.143L26.308,37.581
			c-0.732-0.732-0.576-2.075,0.349-3c0.925-0.925,2.268-1.081,3.001-0.349l18.562,18.562c0.732,0.732,0.576,2.076-0.349,3.001
			C46.945,56.719,45.601,56.875,44.869,56.143z"/>
	</g>
</g>
<g id="Layer_10" display="none">
	<g display="inline">
		<g>
			<path id="LIST_7_" fill-rule="evenodd" clip-rule="evenodd" fill="#444F3B" d="M34.632,54.375v-36.25
				c0-1.035,1.06-1.875,2.368-1.875c1.308,0,2.369,0.84,2.369,1.875v36.25c0,1.036-1.06,1.875-2.369,1.875
				C35.692,56.25,34.632,55.411,34.632,54.375z"/>
			<path id="LIST_6_" fill-rule="evenodd" clip-rule="evenodd" fill="#444F3B" d="M57,36.25c0,1.308-0.839,2.369-1.875,2.369h-36.25
				c-1.035,0-1.875-1.06-1.875-2.369c0-1.308,0.84-2.368,1.875-2.368h36.25C56.16,33.882,57,34.942,57,36.25z"/>
		</g>
	</g>
</g>
<g id="Layer_11" display="none">
	<g id="_x30_wKtdX.tif" display="inline">
		<g>
			<path fill="#BBA248" d="M25.755,32.374c11.699,0,23.252,0,34.946,0c0.803,12.234,1.603,24.423,2.41,36.717
				c-13.408,0-26.77,0-40.24,0C23.83,56.868,24.787,44.689,25.755,32.374z M34.224,41.045C34.065,40.765,34.173,40.89,34.224,41.045
				c0.059,0.387,0.051,0.571,0.1,0.963c0.126,1.009,0.233,2.041,0.539,3.002c1.211,3.807,4.446,6.313,7.926,6.236
				c3.483-0.077,6.767-2.692,7.748-6.472c0.428-1.65,0.331-3.433,0.538-5.148c0.063-0.525,0.248-1.092,0.549-1.519
				c0.679-0.966,0.7-1.951-0.114-2.618c-0.754-0.618-1.553-0.624-2.308,0.001c-0.8,0.663-0.799,1.69-0.092,2.618
				c0.249,0.326,0.527,0.74,0.536,1.119c0.031,1.287,0.04,2.588-0.108,3.864c-0.517,4.463-4.446,7.533-8.347,6.589
				c-2.936-0.71-5.344-3.779-5.471-7.292c-0.058-1.62-0.672-3.404,0.913-4.843c0.274-0.249-0.05-1.533-0.457-2.065
				c-0.535-0.7-1.45-0.611-2.156-0.03c-0.693,0.57-0.846,1.293-0.5,2.156C33.927,38.622,33.907,39.797,34.224,41.045z"/>
			<path fill="#BBA248" d="M45.029,31.279c-6.741,0-13.315,0-20.106,0c-0.862,10.686-1.717,21.295-2.588,32.088
				c-5.564,0-11.015,0-16.522,0c0.454-4.837,0.905-9.705,1.367-14.571c0.855-8.988,1.716-17.976,2.576-26.964
				c0.059-0.62,0.133-1.238,0.198-1.858c0.23-2.171,0.23-2.171,2.474-2.172c1.591,0,3.182,0,4.776,0
				c0.203-1.633,0.258-3.149,0.596-4.599c1.089-4.674,4.96-8.021,9.229-8.113c4.491-0.097,8.573,3.329,9.672,8.227
				c0.309,1.376,0.352,2.813,0.548,4.479c1.533,0,3.16,0.066,4.779-0.022c1.169-0.064,1.587,0.275,1.693,1.514
				C44.061,23.231,44.566,27.157,45.029,31.279z M35.288,17.729c0.745-3.604-1.038-7.87-4.057-9.816
				c-2.654-1.71-5.824-1.613-8.361,0.258c-2.829,2.085-4.513,6.487-3.624,9.558C24.589,17.729,29.946,17.729,35.288,17.729z
				 M38.229,22.023c-0.019-1.17-0.973-2.075-2.16-2.049C34.887,20,34,20.946,34.045,22.133c0.043,1.126,0.929,1.973,2.071,1.98
				C37.299,24.121,38.248,23.183,38.229,22.023z M18.186,19.98c-1.201,0.006-2.076,0.897-2.064,2.103
				c0.012,1.186,0.937,2.067,2.131,2.029c1.133-0.036,1.991-0.906,2.009-2.038C20.281,20.884,19.38,19.975,18.186,19.98z"/>
			<path fill="#BBA248" d="M68.187,64.981c-1.385-0.448-2.576-0.762-3.695-1.24c-0.312-0.134-0.559-0.744-0.593-1.155
				c-0.348-4.209-0.651-8.421-0.955-12.633c-0.358-4.966-0.706-9.933-1.052-14.9c-0.024-0.344-0.003-0.691,0.16-1.059
				C64.082,44.248,66.113,54.503,68.187,64.981z"/>
			<path fill="#BBA248" d="M63.983,64.231c1.381,0.438,2.585,0.821,3.79,1.204c0.106,0.152,0.212,0.303,0.318,0.455
				c-1.037,0.884-2.072,1.77-3.112,2.65c-0.154,0.13-0.329,0.234-0.648,0.457C64.211,67.351,64.104,65.884,63.983,64.231z"/>
		</g>
	</g>
</g>
<g id="Layer_12" display="none">
	<g display="inline">
		<rect x="5.163" y="27.228" fill="#BBA248" width="54.642" height="1.988"/>
		<g>
			<rect x="35.672" y="12.653" fill="#BBA248" width="8.745" height="3.975"/>
			<path fill="#BBA248" d="M60.815,39.166V15.303c0-1.464-1.187-2.65-2.65-2.65h-7.52v3.975h6.128v22.36
				c0.468-0.048,0.943-0.073,1.424-0.073C59.093,38.914,59.967,39.003,60.815,39.166z"/>
			<path fill="#BBA248" d="M44.431,52.139H8.541V16.628h6.128v-3.975H7.15c-1.464,0-2.65,1.186-2.65,2.65v38.161
				c0,1.464,1.186,2.65,2.65,2.65h37.695c-0.279-1.094-0.428-2.239-0.428-3.42C44.417,52.509,44.424,52.324,44.431,52.139z"/>
			<rect x="20.898" y="12.653" fill="#BBA248" width="8.547" height="3.975"/>
		</g>
		<g>
			<path fill="#BBA248" d="M57.105,40.09c-6.294,0-11.395,5.102-11.395,11.395s5.102,11.395,11.395,11.395S68.5,57.779,68.5,51.485
				S63.398,40.09,57.105,40.09z M57.105,61.026c-5.269,0-9.54-4.271-9.54-9.54s4.271-9.54,9.54-9.54s9.54,4.271,9.54,9.54
				S62.374,61.026,57.105,61.026z"/>
			<path fill="#BBA248" d="M56.353,50.485c0.459,0.228,0.63,0.819,0.381,1.318l0,0c-0.249,0.5-0.822,0.72-1.281,0.491l-4.409-2.194
				c-0.459-0.228-0.63-0.819-0.381-1.318l0,0c0.249-0.5,0.822-0.72,1.281-0.491L56.353,50.485z"/>
			<path fill="#BBA248" d="M57.981,53.472c-0.603,0.018-1.11-0.568-1.132-1.308l0,0c-0.022-0.74,0.45-1.355,1.053-1.373l6.026-0.178
				c0.603-0.018,1.11,0.568,1.132,1.308l0,0c0.022,0.74-0.45,1.355-1.053,1.373L57.981,53.472z"/>
			<path fill="#BBA248" d="M58.695,51.883c0,0.878-0.712,1.59-1.59,1.59l0,0c-0.878,0-1.59-0.712-1.59-1.59l0,0
				c0-0.878,0.712-1.59,1.59-1.59l0,0C57.983,50.293,58.695,51.005,58.695,51.883L58.695,51.883z"/>
		</g>
		<g>
			<g>
				<path fill="#BBA248" d="M18.869,18.434c0,0.604-0.489,1.093-1.093,1.093l0,0c-0.604,0-1.093-0.489-1.093-1.093v-7.222
					c0-0.604,0.489-1.093,1.093-1.093l0,0c0.604,0,1.093,0.489,1.093,1.093V18.434z"/>
				<circle fill="#BBA248" cx="17.742" cy="20.388" r="2.319"/>
				<path fill="#BBA248" d="M33.775,18.434c0,0.604-0.489,1.093-1.093,1.093l0,0c-0.604,0-1.093-0.489-1.093-1.093v-7.222
					c0-0.604,0.489-1.093,1.093-1.093l0,0c0.604,0,1.093,0.489,1.093,1.093V18.434z"/>
				<circle fill="#BBA248" cx="32.649" cy="20.388" r="2.319"/>
				<path fill="#BBA248" d="M48.616,18.434c0,0.604-0.489,1.093-1.093,1.093l0,0c-0.604,0-1.093-0.489-1.093-1.093v-7.222
					c0-0.604,0.489-1.093,1.093-1.093l0,0c0.604,0,1.093,0.489,1.093,1.093V18.434z"/>
				<circle fill="#BBA248" cx="47.49" cy="20.388" r="2.319"/>
			</g>
			<circle fill="#BBA248" cx="24.268" cy="33.341" r="2.219"/>
			<circle fill="#BBA248" cx="32.682" cy="33.341" r="2.219"/>
			<circle fill="#BBA248" cx="41.229" cy="33.341" r="2.219"/>
			<circle fill="#BBA248" cx="49.809" cy="33.341" r="2.219"/>
			<circle fill="#BBA248" cx="15.688" cy="40.297" r="2.219"/>
			<circle fill="#BBA248" cx="24.102" cy="40.297" r="2.219"/>
			<circle fill="#BBA248" cx="32.649" cy="40.297" r="2.219"/>
			<circle fill="#BBA248" cx="41.229" cy="40.297" r="2.219"/>
			<circle fill="#BBA248" cx="15.688" cy="47.121" r="2.219"/>
			<circle fill="#BBA248" cx="24.102" cy="47.121" r="2.219"/>
			<circle fill="#BBA248" cx="32.649" cy="47.121" r="2.219"/>
		</g>
	</g>
</g>
<g id="Layer_13" display="none">
	<g id="_x38_XwlGD.tif" display="inline">
		<g>
			<path fill="#BBA248" d="M11.6,59.48c1.358,0,2.663,0.007,3.967-0.002c2.613-0.017,4.285-1.669,4.312-4.248
				c0.028-2.733-1.65-4.463-4.361-4.485c-1.266-0.01-2.531-0.002-3.949-0.002c-0.033-0.524-0.086-0.983-0.086-1.442
				c-0.008-9.33,0.008-18.661-0.035-27.991c-0.005-1.113,0.348-1.472,1.423-1.382c0.957,0.08,1.929,0.062,2.889,0.007
				c2.596-0.147,4.221-1.989,4.125-4.623c-0.094-2.584-1.764-4.229-4.344-4.258c-1.304-0.015-2.608-0.003-3.883-0.003
				c-0.701-3.7,1.969-6.971,5.677-7.024c3.767-0.054,7.534-0.014,11.302-0.014c10.294,0,20.589,0,30.883,0.001
				c4.249,0,6.669,2.417,6.67,6.676c0.003,16.909-0.003,33.818,0.009,50.727c0.001,1.538-0.316,2.954-1.265,4.187
				c-1.269,1.651-2.964,2.341-5.033,2.335c-7.447-0.023-14.894-0.005-22.341-0.005c-6.22,0-12.449-0.201-18.659,0.055
				C13.702,68.204,10.78,65.053,11.6,59.48z M23.869,35.891c0,8.542-0.002,17.083,0.001,25.625c0.001,1.671,0.508,2.17,2.201,2.171
				c11.17,0.003,22.34,0.004,33.51,0.003c1.857,0,2.367-0.479,2.368-2.307c0.006-16.995,0.006-33.991,0.001-50.986
				c-0.001-1.915-0.495-2.401-2.435-2.402C48.432,7.987,37.349,7.988,26.267,7.994c-1.943,0.001-2.4,0.472-2.4,2.404
				C23.865,18.896,23.866,27.394,23.869,35.891z"/>
			<path fill="#BBA248" d="M12.672,17.449c-1.051,0-2.105,0.045-3.153-0.012c-1.205-0.065-1.713-0.707-1.718-2.017
				c-0.005-1.321,0.493-1.982,1.703-2.012c2.101-0.052,4.205-0.053,6.306,0.001c1.189,0.03,1.749,0.745,1.745,1.999
				c-0.004,1.272-0.541,1.949-1.732,2.02c-1.047,0.062-2.101,0.013-3.152,0.013C12.672,17.444,12.672,17.446,12.672,17.449z"/>
			<path fill="#BBA248" d="M12.682,57.136c-1.051,0.001-2.105,0.045-3.153-0.01c-1.226-0.064-1.728-0.687-1.728-1.997
				c0-1.327,0.49-1.989,1.697-2.023c2.101-0.059,4.205-0.057,6.307-0.009c1.18,0.027,1.745,0.744,1.751,2
				c0.005,1.274-0.536,1.96-1.721,2.026C14.787,57.181,13.733,57.135,12.682,57.136z"/>
			<path fill="#BBA248" d="M42.735,15.253c-4.548,0-9.096,0.004-13.644-0.002c-1.586-0.002-2.105-0.467-2.096-1.829
				c0.009-1.336,0.532-1.781,2.144-1.782c9.14-0.003,18.279-0.003,27.419,0c1.581,0.001,2.108,0.469,2.099,1.826
				c-0.009,1.331-0.542,1.783-2.148,1.785C51.919,15.257,47.327,15.254,42.735,15.253z"/>
			<path fill="#BBA248" d="M42.959,37.928c4.557,0,9.113-0.004,13.67,0.002c1.489,0.002,2.01,0.47,2.025,1.772
				c0.015,1.324-0.505,1.835-1.965,1.836c-9.245,0.007-18.489,0.007-27.734,0c-1.461-0.001-1.972-0.505-1.959-1.839
				c0.013-1.296,0.536-1.767,2.031-1.769C33.67,37.923,38.314,37.928,42.959,37.928z"/>
			<path fill="#BBA248" d="M42.832,50.222c-4.636,0-9.271,0.009-13.907-0.005c-1.456-0.004-1.997-0.602-1.932-2.001
				c0.058-1.238,0.778-1.624,1.914-1.621c5.073,0.015,10.146,0.003,15.219,0.003c4.155,0,8.309-0.001,12.464,0.007
				c1.514,0.003,2.037,0.453,2.064,1.728c0.029,1.383-0.488,1.878-2.046,1.881c-4.592,0.01-9.184,0.004-13.776,0.004
				C42.832,50.219,42.832,50.221,42.832,50.222z"/>
			<path fill="#BBA248" d="M42.692,24.035c-4.554,0-9.109,0.008-13.663-0.004c-1.521-0.004-1.967-0.384-2.033-1.619
				c-0.075-1.404,0.432-1.925,1.966-1.928c6.832-0.011,13.663-0.008,20.495-0.009c2.321,0,4.642-0.002,6.963,0.006
				c1.75,0.006,2.248,0.414,2.235,1.801c-0.012,1.334-0.487,1.737-2.168,1.742c-4.598,0.012-9.196,0.004-13.794,0.004
				C42.692,24.031,42.692,24.033,42.692,24.035z"/>
			<path fill="#BBA248" d="M42.759,32.701c-4.598,0-9.197,0.01-13.795-0.005c-1.597-0.005-2.159-0.681-1.955-2.196
				c0.154-1.143,0.927-1.353,1.892-1.352c3.635,0.005,7.27-0.003,10.905-0.002c5.606,0.001,11.211,0.01,16.817,0.001
				c1.066-0.002,1.923,0.191,2.032,1.492c0.122,1.455-0.417,2.06-1.969,2.063c-4.642,0.01-9.284,0.004-13.926,0.004
				C42.759,32.704,42.759,32.702,42.759,32.701z"/>
			<path fill="#BBA248" d="M42.745,58.989c-4.598,0-9.197,0.01-13.795-0.005c-1.589-0.005-2.154-0.694-1.94-2.209
				c0.161-1.145,0.944-1.34,1.904-1.338c3.679,0.005,7.357-0.003,11.036-0.002c5.562,0.001,11.124,0.013,16.685-0.001
				c1.157-0.003,1.981,0.286,2.028,1.639c0.048,1.38-0.469,1.916-1.992,1.919c-4.642,0.009-9.284,0.003-13.926,0.003
				C42.745,58.992,42.745,58.991,42.745,58.989z"/>
		</g>
	</g>
</g>
<g id="Layer_14" display="none">
	<g display="inline">
		<path fill="#BBA248" d="M9.25,57.684c0-15.24-0.006-30.48,0.004-45.72c0.002-3.096,0.363-3.452,3.459-3.458
			c6.995-0.014,13.991-0.009,20.986-0.002c3.236,0.003,3.543,0.323,3.544,3.604c0,2.073,0.001,4.145,0.001,6.218v0.449h0
			c0.002,12.934,0.004,25.868,0.006,38.802c0,0.896,0,1.792,0,2.781c1.426,0,2.616,0,4.009,0c0-0.962,0-1.781,0-2.599
			c-0.003-15.906-0.048-31.812,0.034-47.718c0.002-0.323-0.009-0.636-0.032-0.939V4.503h-2.51c-0.502,0-1.004,0-1.506,0
			c-10.665,0-21.33,0-31.994,0c0,18.771,0,37.385,0,56c1.294,0,2.587,0,4,0C9.25,59.33,9.25,58.507,9.25,57.684z"/>
		<path fill="#BBA248" d="M63.715,8.457c-4.326,0.149-8.662,0.03-12.993,0.042c-4.265,0.012-5.472,1.214-5.475,5.503
			c-0.008,14.744-0.001,29.487,0.009,44.231c0,0.72,0.086,1.44,0.132,2.163c1.338,0,2.475,0,3.765,0
			c0.036-0.745,0.094-1.39,0.094-2.035c0.005-14.161-0.001-28.321,0.007-42.482c0.002-2.976,0.381-3.359,3.274-3.374
			c2.999-0.015,5.997-0.008,8.996-0.003c3.451,0.006,3.717,0.252,3.719,3.688c0.01,13.827,0.006,27.655,0.007,41.482
			c0,0.89,0,1.78,0,2.829c1.528,0,2.764,0,4,0c0-16.5,0-33,0-49.5C67.916,9.04,66.09,8.375,63.715,8.457z"/>
		<path fill="#BBA248" d="M8.448,64.544c-1.067,0.003-2.132,0.625-3.198,0.959c0,0.996,0,1.993,0,2.992
			c21.333,0.003,42.667,0.003,64,0c0-0.999,0-1.996,0-2.992c-1.066-0.336-2.131-0.962-3.198-0.965
			C46.851,64.481,27.649,64.483,8.448,64.544z"/>
		<path fill="#BBA248" d="M21.087,12.686c-2.695,0-5.216,0-7.719,0c0,2.655,0,5.116,0,7.698c2.583,0,5.043,0,7.719,0
			C21.087,17.687,21.087,15.17,21.087,12.686z"/>
		<path fill="#BBA248" d="M25.365,12.596c0,2.742,0,5.201,0,7.769c2.643,0,5.161,0,7.727,0c0-2.667,0-5.185,0-7.769
			C30.465,12.596,28.006,12.596,25.365,12.596z"/>
		<path fill="#BBA248" d="M53.338,24.305c2.794,0,5.316,0,7.782,0c0-2.668,0-5.13,0-7.651c-2.661,0-5.181,0-7.782,0
			C53.338,19.271,53.338,21.733,53.338,24.305z"/>
		<path fill="#BBA248" d="M21.106,24.592c-2.612,0-5.071,0-7.667,0c0,2.78,0,5.299,0,7.787c2.66,0,5.121,0,7.667,0
			C21.106,29.727,21.106,27.208,21.106,24.592z"/>
		<path fill="#BBA248" d="M33.133,24.64c-2.646,0-5.167,0-7.787,0c0,2.604,0,5.066,0,7.679c2.756,0,5.277,0,7.787,0
			C33.133,29.665,33.133,27.203,33.133,24.64z"/>
		<path fill="#BBA248" d="M61.162,28.701c-2.791,0-5.313,0-7.78,0c0,2.664,0,5.126,0,7.646c2.654,0,5.174,0,7.78,0
			C61.162,33.73,61.162,31.269,61.162,28.701z"/>
		<path fill="#BBA248" d="M21.045,36.665c-2.609,0-5.131,0-7.608,0c0,2.694,0,5.216,0,7.787c2.592,0,4.993,0,7.608,0
			C21.045,41.855,21.045,39.276,21.045,36.665z"/>
		<path fill="#BBA248" d="M33.13,36.669c-2.692,0-5.212,0-7.691,0c0,2.693,0,5.215,0,7.709c2.652,0,5.114,0,7.691,0
			C33.13,41.796,33.13,39.334,33.13,36.669z"/>
		<path fill="#BBA248" d="M61.063,48.336c0-2.698,0-5.221,0-7.792c-2.593,0-4.995,0-7.609,0c0,2.603,0,5.183,0,7.792
			C56.066,48.336,58.588,48.336,61.063,48.336z"/>
		<path fill="#BBA248" d="M21.081,48.606c-2.631,0-5.092,0-7.706,0c0,2.746,0,5.207,0,7.748c2.646,0,5.166,0,7.706,0
			C21.081,53.683,21.081,51.162,21.081,48.606z"/>
		<path fill="#BBA248" d="M25.37,56.359c2.649,0,5.17,0,7.714,0c0-2.67,0-5.191,0-7.671c-2.694,0-5.216,0-7.714,0
			C25.37,51.346,25.37,53.807,25.37,56.359z"/>
	</g>
</g>
<g id="Layer_15">
	<g>
		<g>
			<path fill="#BBA248" d="M24.797,25.474c-1.299,0-2.36,1.061-2.36,2.369c0,1.306,1.061,2.368,2.36,2.368
				c1.315,0,2.377-1.061,2.377-2.368C27.173,26.536,26.112,25.474,24.797,25.474L24.797,25.474z M24.797,25.474"/>
			<path fill="#BBA248" d="M42.17,29.375c0.52,0.225,1.144,0.353,1.826,0.353c1.743,0,3.163-0.851,3.163-1.905
				c0-1.047-1.42-1.903-3.163-1.903c-0.653,0-1.265,0.119-1.763,0.329c-0.21-0.203-0.493-0.329-0.801-0.329h-0.457
				c-0.585,0-1.047,0.443-1.117,1.011c-1.414,0.148-2.461,0.66-2.461,1.272c0,0.73,1.47,1.315,3.296,1.315
				C41.227,29.517,41.727,29.459,42.17,29.375L42.17,29.375z M42.17,29.375"/>
			<path fill="#BBA248" d="M51.79,34.196v-12.93c0-0.387-0.309-0.703-0.702-0.703H17.6c-0.399,0-0.716,0.317-0.716,0.703v28.981
				c0,0.394,0.317,0.711,0.716,0.711h22.243c1.806,1.545,4.138,2.479,6.703,2.479c5.707,0,10.337-4.631,10.337-10.337
				C56.884,39.306,54.833,35.995,51.79,34.196L51.79,34.196z M32.696,31.814c-3.823-3.816-7.52,10.963-7.52,10.963h-5.059V23.767
				h29.031v9.333c-0.829-0.218-1.702-0.345-2.601-0.345c-4.37,0-8.11,2.727-9.612,6.565C36.132,36.958,34.776,33.901,32.696,31.814
				L32.696,31.814z M46.547,51.147c-4.447,0-8.045-3.605-8.045-8.047c0-4.447,3.598-8.045,8.045-8.045
				c4.442,0,8.047,3.598,8.047,8.045C54.594,47.541,50.989,51.147,46.547,51.147L46.547,51.147z M46.547,51.147"/>
			<path fill="#BBA248" d="M47.947,37.47h-3.431v3.915h-3.997v3.436h3.997v4.028h3.431v-4.028h3.956v-3.436h-3.956V37.47z
				 M47.947,37.47"/>
		</g>
	</g>
</g>
</svg>
