<?xml version="1.0" encoding="utf-8"?>
<!-- Generator: Adobe Illustrator 17.1.0, SVG Export Plug-In . SVG Version: 6.00 Build 0)  -->
<!DOCTYPE svg PUBLIC "-//W3C//DTD SVG 1.1//EN" "http://www.w3.org/Graphics/SVG/1.1/DTD/svg11.dtd">
<svg version="1.1" xmlns="http://www.w3.org/2000/svg" xmlns:xlink="http://www.w3.org/1999/xlink" x="0px" y="0px" width="72px"
	 height="72px" viewBox="0 0 72 72" enable-background="new 0 0 72 72" xml:space="preserve">
<g id="Layer_1" display="none">
	<g id="jlj7Q8.tif" display="inline">
		<g>
			<path fill="#829216" d="M36.481,51.977C31.791,51.978,27.1,51.943,22.411,52c-1.34,0.016-1.879-0.399-1.885-1.799
				c-0.017-4.022-0.04-3.97,3.576-5.565c2.443-1.077,4.874-2.215,7.191-3.536c1.816-1.036,1.828-2.139,0.682-3.922
				c-0.973-1.515-1.802-3.128-2.604-4.742c-0.213-0.43-0.16-1.031-0.113-1.544c0.145-1.595,0.448-3.182,0.504-4.779
				c0.121-3.476,1.691-5.497,5.113-5.997c1.385-0.202,2.876-0.135,4.25,0.147c2.461,0.504,3.884,2.346,4.134,4.876
				c0.2,2.025,0.443,4.047,0.628,6.073c0.038,0.416,0.018,0.905-0.167,1.261c-0.828,1.6-1.641,3.22-2.62,4.728
				c-1.134,1.746-1.11,2.883,0.73,3.911c2.495,1.394,5.099,2.607,7.718,3.76c2.982,1.312,3.011,1.246,3.043,4.476
				c0.003,0.287-0.002,0.575,0.015,0.861c0.075,1.256-0.432,1.803-1.766,1.788C46.054,51.943,41.267,51.977,36.481,51.977z"/>
		</g>
	</g>
</g>
<g id="Layer_2" display="none">
	<path display="inline" fill="#829216" d="M52.61,50.427c-0.106-4.471-0.03-8.946-0.033-13.419
		c-0.002-3.216-1.232-4.455-4.432-4.471c-0.434-0.002-0.868,0-1.481,0c0-2.588-0.116-5.085,0.027-7.566
		c0.223-3.895-1.336-6.519-5.052-7.808c-3.351,0-6.701,0-10.052,0c-3.721,1.283-5.275,3.911-5.051,7.803
		c0.14,2.444,0.026,4.903,0.026,7.572c-0.748,0-1.413-0.01-2.077,0.002c-2.403,0.042-3.821,1.457-3.831,3.884
		c-0.019,4.669,0.06,9.34-0.04,14.006c-0.047,2.176,0.685,3.704,2.694,4.576c8.87,0,17.739,0,26.609,0
		C51.92,54.127,52.662,52.609,52.61,50.427z M33.823,41.432c0-1.541,1.249-2.79,2.79-2.79c1.541,0,2.79,1.249,2.79,2.79
		c0,1.149-0.694,2.134-1.686,2.562v4.367h-2.217V43.99C34.513,43.56,33.823,42.577,33.823,41.432z M43.095,32.465
		c-4.424,0-8.633,0-12.965,0c0-3.151-0.063-6.233,0.028-9.311c0.041-1.403,1.216-2.395,2.69-2.426
		c2.504-0.052,5.011-0.049,7.515-0.001c1.479,0.029,2.66,1.007,2.702,2.41C43.16,26.217,43.095,29.301,43.095,32.465z"/>
</g>
<g id="Layer_3">
	<g id="_x34_BZHGu.tif">
		<g>
			<path fill="#829216" d="M20.568,27.622c2.458,2.032,4.92,4.061,7.374,6.098c0.795,0.66,1.571,1.343,2.399,2.054
				c-3.287,3.313-6.53,6.58-9.773,9.848C20.568,39.622,20.568,33.622,20.568,27.622z"/>
			<path fill="#829216" d="M52.568,45.622c-3.252-3.259-6.503-6.517-9.852-9.874c3.337-2.753,6.595-5.44,9.852-8.126
				C52.568,33.622,52.568,39.622,52.568,45.622z"/>
			<path fill="#829216" d="M21.189,25.716c0.674-0.131,1.218-0.328,1.762-0.33c9.074-0.02,18.149-0.02,27.223-0.002
				c0.545,0.001,1.09,0.197,1.882,0.35c-0.407,0.44-0.594,0.689-0.826,0.886c-4.626,3.94-9.259,7.872-13.885,11.811
				c-0.429,0.365-0.761,0.688-1.365,0.169c-4.832-4.147-9.69-8.263-14.537-12.391C21.386,26.161,21.367,26.068,21.189,25.716z"/>
			<path fill="#829216" d="M51.738,47.363c-10.18,0.016-20.162,0.023-30.256-0.009c3.568-3.571,6.901-6.905,10.328-10.334
				c1.139,0.962,2.521,2.084,3.846,3.269c0.658,0.589,1.169,0.588,1.824,0.001c1.3-1.164,2.652-2.269,3.892-3.32
				C44.736,40.342,48.068,43.683,51.738,47.363z"/>
		</g>
	</g>
</g>
</svg>
