<?xml version="1.0" encoding="utf-8"?>
<!-- Generator: Adobe Illustrator 17.1.0, SVG Export Plug-In . SVG Version: 6.00 Build 0)  -->
<!DOCTYPE svg PUBLIC "-//W3C//DTD SVG 1.1//EN" "http://www.w3.org/Graphics/SVG/1.1/DTD/svg11.dtd">
<svg version="1.1" xmlns="http://www.w3.org/2000/svg" xmlns:xlink="http://www.w3.org/1999/xlink" x="0px" y="0px" width="72px"
	 height="72px" viewBox="0 0 72 72" enable-background="new 0 0 72 72" xml:space="preserve">
<g id="Layer_1" display="none">
	<g id="jlj7Q8.tif" display="inline">
		<g>
			<path fill="#829216" d="M36.481,51.977C31.791,51.978,27.1,51.943,22.411,52c-1.34,0.016-1.879-0.399-1.885-1.799
				c-0.017-4.022-0.04-3.97,3.576-5.565c2.443-1.077,4.874-2.215,7.191-3.536c1.816-1.036,1.828-2.139,0.682-3.922
				c-0.973-1.515-1.802-3.128-2.604-4.742c-0.213-0.43-0.16-1.031-0.113-1.544c0.145-1.595,0.448-3.182,0.504-4.779
				c0.121-3.476,1.691-5.497,5.113-5.997c1.385-0.202,2.876-0.135,4.25,0.147c2.461,0.504,3.884,2.346,4.134,4.876
				c0.2,2.025,0.443,4.047,0.628,6.073c0.038,0.416,0.018,0.905-0.167,1.261c-0.828,1.6-1.641,3.22-2.62,4.728
				c-1.134,1.746-1.11,2.883,0.73,3.911c2.495,1.394,5.099,2.607,7.718,3.76c2.982,1.312,3.011,1.246,3.043,4.476
				c0.003,0.287-0.002,0.575,0.015,0.861c0.075,1.256-0.432,1.803-1.766,1.788C46.054,51.943,41.267,51.977,36.481,51.977z"/>
		</g>
	</g>
</g>
<g id="Layer_2" display="none">
	<path display="inline" fill="#829216" d="M52.61,50.427c-0.106-4.471-0.03-8.946-0.033-13.419
		c-0.002-3.216-1.232-4.455-4.432-4.471c-0.434-0.002-0.868,0-1.481,0c0-2.588-0.116-5.085,0.027-7.566
		c0.223-3.895-1.336-6.519-5.052-7.808c-3.351,0-6.701,0-10.052,0c-3.721,1.283-5.275,3.911-5.051,7.803
		c0.14,2.444,0.026,4.903,0.026,7.572c-0.748,0-1.413-0.01-2.077,0.002c-2.403,0.042-3.821,1.457-3.831,3.884
		c-0.019,4.669,0.06,9.34-0.04,14.006c-0.047,2.176,0.685,3.704,2.694,4.576c8.87,0,17.739,0,26.609,0
		C51.92,54.127,52.662,52.609,52.61,50.427z M33.823,41.432c0-1.541,1.249-2.79,2.79-2.79c1.541,0,2.79,1.249,2.79,2.79
		c0,1.149-0.694,2.134-1.686,2.562v4.367h-2.217V43.99C34.513,43.56,33.823,42.577,33.823,41.432z M43.095,32.465
		c-4.424,0-8.633,0-12.965,0c0-3.151-0.063-6.233,0.028-9.311c0.041-1.403,1.216-2.395,2.69-2.426
		c2.504-0.052,5.011-0.049,7.515-0.001c1.479,0.029,2.66,1.007,2.702,2.41C43.16,26.217,43.095,29.301,43.095,32.465z"/>
</g>
<g id="Layer_3" display="none">
	<g id="_x34_BZHGu.tif" display="inline">
		<g>
			<path fill="#829216" d="M20.568,27.622c2.458,2.032,4.92,4.061,7.374,6.098c0.795,0.66,1.571,1.343,2.399,2.054
				c-3.287,3.313-6.53,6.58-9.773,9.848C20.568,39.622,20.568,33.622,20.568,27.622z"/>
			<path fill="#829216" d="M52.568,45.622c-3.252-3.259-6.503-6.517-9.852-9.874c3.337-2.753,6.595-5.44,9.852-8.126
				C52.568,33.622,52.568,39.622,52.568,45.622z"/>
			<path fill="#829216" d="M21.189,25.716c0.674-0.131,1.218-0.328,1.762-0.33c9.074-0.02,18.149-0.02,27.223-0.002
				c0.545,0.001,1.09,0.197,1.882,0.35c-0.407,0.44-0.594,0.689-0.826,0.886c-4.626,3.94-9.259,7.872-13.885,11.811
				c-0.429,0.365-0.761,0.688-1.365,0.169c-4.832-4.147-9.69-8.263-14.537-12.391C21.386,26.161,21.367,26.068,21.189,25.716z"/>
			<path fill="#829216" d="M51.738,47.363c-10.18,0.016-20.162,0.023-30.256-0.009c3.568-3.571,6.901-6.905,10.328-10.334
				c1.139,0.962,2.521,2.084,3.846,3.269c0.658,0.589,1.169,0.588,1.824,0.001c1.3-1.164,2.652-2.269,3.892-3.32
				C44.736,40.342,48.068,43.683,51.738,47.363z"/>
		</g>
	</g>
</g>
<g id="Layer_4" display="none">
	<g display="inline">
		<g>
			<path id="LIST_2_" fill-rule="evenodd" clip-rule="evenodd" fill="#444F3B" d="M21.772,47.392l25.633-25.633
				c0.732-0.732,2.075-0.576,3,0.349c0.925,0.925,1.081,2.268,0.349,3.001L25.122,50.741c-0.732,0.732-2.076,0.576-3.001-0.349
				C21.196,49.467,21.04,48.124,21.772,47.392z"/>
			<path id="LIST_3_" fill-rule="evenodd" clip-rule="evenodd" fill="#444F3B" d="M50.405,50.392
				c-0.925,0.925-2.268,1.081-3.001,0.349L21.772,25.108c-0.732-0.732-0.576-2.076,0.349-3.001c0.925-0.925,2.268-1.081,3-0.349
				l25.633,25.633C51.486,48.124,51.33,49.467,50.405,50.392z"/>
		</g>
	</g>
</g>
<g id="Layer_5" display="none">
	<g display="inline">
		<path id="LIST_8_" fill-rule="evenodd" clip-rule="evenodd" fill="#444F3B" d="M54.125,38.667h-36.25
			c-1.036,0-1.875-1.06-1.875-2.368c0-1.308,0.839-2.368,1.875-2.368h36.25c1.035,0,1.875,1.06,1.875,2.368
			C56,37.606,55.16,38.667,54.125,38.667z M54.125,26.035h-36.25c-1.036,0-1.875-1.06-1.875-2.368c0-1.308,0.839-2.369,1.875-2.369
			h36.25c1.035,0,1.875,1.061,1.875,2.369C56,24.975,55.16,26.035,54.125,26.035z M17.875,46.561h36.25
			c1.035,0,1.875,1.06,1.875,2.368c0,1.308-0.84,2.369-1.875,2.369h-36.25c-1.036,0-1.875-1.06-1.875-2.369
			C16,47.622,16.839,46.561,17.875,46.561z"/>
	</g>
</g>
<g id="Layer_6">
	<g id="VmXrf8.tif_1_">
		<g>
			<g>
				<path fill="#BBA248" d="M34.887,6.5c1.076,0,2.151,0,3.227,0c1.004,0.125,2.014,0.215,3.011,0.381
					c6.279,1.042,11.712,3.776,16.209,8.286c4.612,4.626,7.402,10.189,8.337,16.666c0.123,0.85,0.22,1.703,0.33,2.555
					c0,1.076,0,2.151,0,3.227c-0.037,0.186-0.094,0.371-0.108,0.559c-0.338,4.733-1.708,9.151-4.232,13.162
					c-4.881,7.757-11.86,12.399-20.937,13.829c-0.866,0.136-1.74,0.226-2.61,0.337c-1.076,0-2.151,0-3.227,0
					c-0.166-0.036-0.33-0.094-0.497-0.106c-4.997-0.348-9.629-1.844-13.806-4.598C13.157,55.898,8.712,49.04,7.335,40.227
					C7.199,39.36,7.11,38.485,7,37.613c0-1.076,0-2.151,0-3.227c0.036-0.186,0.093-0.371,0.106-0.558
					c0.214-3.163,0.884-6.231,2.172-9.124C13.75,14.659,21.406,8.667,32.273,6.835C33.138,6.689,34.015,6.61,34.887,6.5z
					 M55.773,53.13c8.837-9.66,9.232-25.981-1.849-36.178c-10.643-9.794-27.545-9.023-37.192,2.446
					C7.56,30.304,9.655,45.153,17.259,53.113c3.561-2.464,7.834-3.054,11.676-4.494c0.087,1.317-0.044,2.652,0.295,3.854
					c1,3.543,3.085,6.441,5.833,8.866c0.823,0.726,2.068,0.702,2.909-0.023c2.294-1.978,3.962-4.414,5.238-7.141
					c0.564-1.205,0.841-2.461,0.802-3.791c-0.017-0.585-0.003-1.172-0.003-1.79C47.931,50.066,52.213,50.663,55.773,53.13z"/>
				<path fill="#BBA248" d="M47.795,30.798c0.934,0.116,1.336,0.443,1.485,1.317c0.324,1.908-0.272,3.55-1.528,4.985
					c-0.198,0.226-0.393,0.472-0.521,0.741c-1.018,2.139-2.162,4.197-3.786,5.948c-1.899,2.048-4.186,3.281-7.039,3.253
					c-2.831-0.028-5.076-1.304-6.939-3.349c-1.555-1.706-2.667-3.693-3.659-5.759c-0.153-0.319-0.378-0.613-0.61-0.884
					c-1.195-1.399-1.781-2.991-1.495-4.834c0.15-0.968,0.508-1.272,1.452-1.424c-0.11-1.292-0.25-2.584-0.323-3.879
					c-0.081-1.444,0.048-2.874,0.459-4.27c0.697-2.364,2.212-4.095,4.35-5.198c4.662-2.406,9.376-2.395,13.977,0.152
					c2.87,1.589,4.377,4.166,4.489,7.434c0.061,1.792-0.17,3.593-0.271,5.391C47.829,30.534,47.812,30.645,47.795,30.798z
					 M46.287,28.326c-1.253-0.105-2.323-0.177-3.389-0.287c-4.192-0.433-8.004-1.744-11.065-4.798
					c-0.141-0.141-0.449-0.22-0.65-0.181c-2.199,0.426-3.414,1.978-4.335,3.852c-0.032,0.065-0.04,0.149-0.039,0.224
					c0.016,0.728-0.027,1.465,0.068,2.183c0.184,1.383,0.447,2.755,0.678,4.137c-0.229-0.437-0.407-0.913-0.703-1.297
					c-0.21-0.273-0.711-0.66-0.851-0.582c-0.338,0.189-0.723,0.599-0.765,0.958c-0.155,1.313,0.259,2.488,1.142,3.497
					c0.309,0.353,0.584,0.748,0.811,1.159c0.853,1.541,1.619,3.133,2.535,4.634c0.82,1.344,1.948,2.438,3.44,3.043
					c2.925,1.184,7.364,1.114,9.937-2.814c1.035-1.58,1.835-3.313,2.747-4.974c0.155-0.283,0.282-0.615,0.514-0.817
					c0.814-0.708,1.223-1.621,1.382-2.645c0.071-0.459,0.072-0.977-0.069-1.412c-0.274-0.84-0.935-0.919-1.436-0.199
					c-0.313,0.45-0.542,0.957-0.776,1.38C45.728,31.758,46.004,30.065,46.287,28.326z"/>
			</g>
		</g>
	</g>
</g>
</svg>
