<?xml version="1.0" encoding="utf-8"?>
<!-- Generator: Adobe Illustrator 17.1.0, SVG Export Plug-In . SVG Version: 6.00 Build 0)  -->
<!DOCTYPE svg PUBLIC "-//W3C//DTD SVG 1.1//EN" "http://www.w3.org/Graphics/SVG/1.1/DTD/svg11.dtd">
<svg version="1.1" id="Layer_1" xmlns="http://www.w3.org/2000/svg" xmlns:xlink="http://www.w3.org/1999/xlink" x="0px" y="0px"
	 width="72px" height="72px" viewBox="0 0 72 72" enable-background="new 0 0 72 72" xml:space="preserve">
<g id="jlj7Q8.tif">
	<g>
		<path fill="#829216" d="M36.481,51.977C31.791,51.978,27.1,51.943,22.411,52c-1.34,0.016-1.879-0.399-1.885-1.799
			c-0.017-4.022-0.04-3.97,3.576-5.565c2.443-1.077,4.874-2.215,7.191-3.536c1.816-1.036,1.828-2.139,0.682-3.922
			c-0.973-1.515-1.802-3.128-2.604-4.742c-0.213-0.43-0.16-1.031-0.113-1.544c0.145-1.595,0.448-3.182,0.504-4.779
			c0.121-3.476,1.691-5.497,5.113-5.997c1.385-0.202,2.876-0.135,4.25,0.147c2.461,0.504,3.884,2.346,4.134,4.876
			c0.2,2.025,0.443,4.047,0.628,6.073c0.038,0.416,0.018,0.905-0.167,1.261c-0.828,1.6-1.641,3.22-2.62,4.728
			c-1.134,1.746-1.11,2.883,0.73,3.911c2.495,1.394,5.099,2.607,7.718,3.76c2.982,1.312,3.011,1.246,3.043,4.476
			c0.003,0.287-0.002,0.575,0.015,0.861c0.075,1.256-0.432,1.803-1.766,1.788C46.054,51.943,41.267,51.977,36.481,51.977z"/>
	</g>
</g>
</svg>
